0
SECTION
2
ENTITIES
0
POINT
8
TIANG
10
436975.31
20
9226844.12
30
15.0
0
POINT
8
TIANG
10
437050.00
20
9226900.00
30
16.0
0
LINE
8
KABEL
10
436975.31
20
9226844.12
11
437050.00
21
9226900.00
0
LWPOLYLINE
8
AREA_ODP
90
4
70
1
10
436950.0
20
9226800.0
10
437000.0
20
9226800.0
10
437000.0
20
9226860.0
10
436950.0
20
9226860.0
0
CIRCLE
8
JANGKAUAN
10
436975.31
20
9226844.12
40
60.0
0
TEXT
8
LABEL
10
436975.31
20
9226844.12
40
2.0
1
ODP Pasar Semarang
0
ENDSEC
0
EOF
